# xmcd
#
# Track frame offsets:
#	150
#	15044
#	26821
#	40738
#	56284
#	65290
#	80310
#	92367
#	105997
#	121053
#	134105
#	147372
#	192480
#	209628
#
# Disc length: 3010 seconds
#
# Revision: 0
# Processed by: cddbd v1.5.2PL0 Copyright (c) Steve Scherf et al.
# Submitted via: EasyCDDAExtractor 16.0.8.2
#
DISCID=b40bc00e
DTITLE=Άνευ ερμηνευτού - Όλοι κλαρίνο 2 Οι παλαιοί
DYEAR=2014
DGENRE=Παραδοσιακή
TTITLE0=Διώξε με μάννα, διώξε με [Τάσος Χαλκιάς]
TTITLE1=Μαντηλάτος [Χρήστος Κουρούδης]
TTITLE2=Τσιφτετέλι ουσάκ [Βασίλης Σούκας]
TTITLE3=Γρήγορο πουλί [Ηλίας Παπαγεωργίου]
TTITLE4=Τσιφτετέλι [Βασίλης Σαλέας]
TTITLE5=Γκάϊντα [Παναγιώτης Κοκοντίνης]
TTITLE6=Ολυμπία [Γιώργος Γευγελής]
TTITLE7=Κόρ' Ελένη [Κυριάκος Γευγελής]
TTITLE8=Καλαματιανό Μακεδονίας [Βασ. Τρομάρας]
TTITLE9=Μοιρολόϊ Ελπασάν [Δημήτρης Χαλκιάς]
TTITLE10=Βεράτι πωγωνήσιο [Νίκος Χαλκιάς]
TTITLE11=Δρόμοι της αυγής Γιώργος Ουρούμης]
TTITLE12=Σόλο κλαρίνο [σύνθ. Γιάννης Βασιλόπουλος]
TTITLE13=Κερατζίδικος [Σωτήρης Σγούρος]
EXTD=
EXTT0=
EXTT1=
EXTT2=
EXTT3=
EXTT4=
EXTT5=
EXTT6=
EXTT7=
EXTT8=
EXTT9=
EXTT10=
EXTT11=
EXTT12=
EXTT13=
PLAYORDER=
